<svg xmlns="http://www.w3.org/2000/svg" version="1.1" xmlns:xlink="http://www.w3.org/1999/xlink" xmlns:svgjs="http://svgjs.dev/svgjs" width="1500" height="1687" viewBox="0 0 1500 1687"><g transform="matrix(1,0,0,1,0,0)"><svg viewBox="0 0 320 360" data-background-color="#ffffff" preserveAspectRatio="xMidYMid meet" height="1687" width="1500" xmlns="http://www.w3.org/2000/svg" xmlns:xlink="http://www.w3.org/1999/xlink"><g id="tight-bounds" transform="matrix(1,0,0,1,0,0)"><svg viewBox="0 0 320 360" height="360" width="320"><g><svg></svg></g><g><svg viewBox="0 0 320 360" height="360" width="320"><g><path d="M219.58 41.008c0.707 0 6.365 2.829 9.547 3.89-1.061 0.354-3.536-0.707-6.365-1.768 0.707 0 2.122 0.354 3.536 1.06-0.707-0.707-6.011-2.475-6.718-3.182M166.895 30.047c1.061-0.354 13.436 1.414 19.094 1.768 0.354-0.354-0.707-0.354-2.122-0.707 1.768-0.354 5.304 0.707 7.779 1.06-7.425 0.354-15.558-1.768-22.629-1.06-2.475 0-0.707-0.707-2.122-1.061M156.641 30.047c6.365 0 11.315 0 2.121 0.707-1.061-0.354-2.475-0.354-2.121-0.707M256.707 59.395c0.707 0 3.536 3.182 4.95 4.243-0.354 0.354-3.182-2.475-4.596-3.536 0.354 0.354 0 0-0.354-0.707M249.635 54.798c-2.829-2.475-3.889-2.475-4.243-3.889 2.475 1.414 4.243 2.829 4.243 3.889M204.022 32.522c0.354-0.354 1.061 0.354 2.829 0.707-2.122-0.354-1.768 0-1.061 0.707-2.475-0.354-3.182-0.707-2.475-1.414 1.414 0.707 1.768 0.354 0.707 0M103.602 36.765c0-0.354 1.414-1.061 2.475-1.414-1.061 0.707-0.707 1.061 1.061 0.353 0 0.354-2.122 1.061-3.536 1.768 0.707-0.354 1.414-1.414 0-0.707M211.094 28.986c-1.061 0.354-4.95-1.768-8.84-2.475-2.122-0.707 8.486 1.768 8.84 2.475M2.475 203.66c2.122 8.84 0.707 8.486 0 0M2.829 150.621c0.354-1.414 0.707-5.304 1.06-4.95-1.061 8.486-2.829 12.376-3.182 18.74 1.061-5.657-0.354 3.182-0.707 5.304 0.354 2.829 0.354-1.768 1.061-1.06 0.707 1.061-1.414 15.912-0.707 7.779-0.707 7.425 0 15.558 1.414 17.679-1.768 11.315 7.072 36.773 8.84 42.077 0.354 0.354 0-1.768 0.707-0.353 0.707 4.597 3.889 7.779 4.95 12.729 1.061 1.414 5.304 9.193 6.011 10.962 1.414 2.829 2.122 2.475 3.536 5.303 4.243 8.133 10.961 15.912 17.326 23.337 20.508 24.044 51.978 43.845 86.984 50.918 35.006 7.425 71.779 2.122 100.419-11.669 1.768-1.061 1.414-1.414 3.536-2.122 9.901-3.182 21.923-13.436 28.641-17.326 3.182-3.536 11.669-9.547 12.73-13.082 6.011-4.95 12.022-13.083 15.204-18.387 1.768-2.829 3.182-2.829 3.889-4.597-0.354 0 5.657-7.425 7.426-11.668-0.707 0-1.768 2.122-1.768 0 12.729-24.398 19.801-57.282 15.911-79.912 0.707 27.934-6.365 59.05-19.801 78.851-6.011 12.729-18.387 26.519-29.701 36.42-1.768 1.768-3.536 3.889-5.658 5.304-6.718 5.657-14.144 10.254-21.922 14.497-18.387 10.254-38.895 19.094-62.94 19.447 41.37-3.536 78.497-24.398 99.006-49.856-15.558 15.204-22.276 21.215-39.602 30.055-1.414 2.475-13.083 7.425-20.862 9.547 4.597-2.122 14.144-5.657 17.326-8.486-25.812 12.376-54.453 19.448-81.326 15.558 10.254 0 24.751 0.354 38.541-2.121 2.122-0.707 3.182-1.414 5.658-1.768 26.873-6.011 52.685-19.094 71.072-37.481-10.608 9.547-26.519 20.862-36.774 24.398 9.547-5.304 26.873-15.558 32.53-23.337-11.315 11.315-32.53 22.63-45.966 27.58-2.122 0.354 1.414-1.414-2.122 0-4.243 1.061-2.475 1.061-3.536 1.768-16.265 4.597-35.006 8.486-50.563 7.072-2.829-0.354-3.889-1.061-6.365-1.061-2.829-0.354-5.304-0.354-8.486-0.354-12.376-1.414-25.812-6.365-35.713-10.607-5.304-2.475-10.608-4.243-15.912-7.426-4.243-2.475-7.779-5.304-11.314-8.132-13.436-9.901-24.751-19.801-35.36-33.945-19.094-26.519-28.994-59.757-27.58-92.641 1.414-32.884 14.497-65.061 35.359-88.752-1.061 1.061 1.414-2.475 3.536-4.596 0 0.707-0.354 1.768 2.122-0.707 2.122-2.475-0.707-0.707 0.353-2.122 21.923-24.044 60.111-43.492 99.36-44.199 1.414-1.061 3.889-2.475 6.718-1.768 0 0.354-1.768 0.354-1.768 0.354 3.889-0.354 7.425-0.354 9.193 0.353 0.354-0.354-1.414-0.707 0-0.707 2.475 0.707 3.182 0 4.597 0.707-1.061 0-2.122 0-2.829 0.354 8.84 0 14.497 2.122 23.337 2.829-4.597-1.061-5.657-1.061-9.193-2.122 3.889 0.707 5.657 1.414 7.425 1.061-0.707 0-0.354-1.061 0.354-0.707 7.072 1.768 7.779 2.475 15.204 4.95 0.707-0.707-3.182-1.061-4.243-2.122 7.072 2.475 13.436 4.243 17.68 7.072-1.414-1.061-5.657-2.475-8.84-3.889-0.354 0.354 1.061 0.707 1.414 1.414-3.536-1.768-8.486-3.536-13.436-4.243 4.243 1.061 7.072 2.475 8.84 3.182-3.889-0.707-8.84-3.182-14.498-4.243 9.193 2.829 26.519 9.193 37.127 14.851-3.889-2.475-8.486-4.243-10.961-5.657 2.122 0.354 4.597 1.768 4.597 1.06 2.475 1.061 5.657 3.536 7.425 3.89-3.182-2.122-9.547-5.304-11.668-6.365 26.519 12.022 50.21 32.177 65.414 57.989 1.414 2.475 3.536 8.133 5.304 8.84-0.354-1.768-1.768-2.829-3.182-5.657 0.707 0 0.707-1.061 0-2.122-1.414-1.768 0 1.414-1.415-0.354-6.365-11.669-14.144-21.923-26.165-33.237 6.718 6.365 1.768 1.768 0.353-0.354 9.193 8.133 19.801 21.923 24.398 28.995-0.707-1.061-1.061-1.768-0.707-1.768 8.486 14.497 13.79 27.58 19.094 46.32 0.354 0.354 0-1.414 0.707-0.353 3.536 14.851 4.597 27.227 4.243 38.541 2.829-19.094-3.536-48.796-14.851-72.133-1.414-2.829-1.414-0.707-2.829-3.889 0-1.061-1.061-3.182-1.768-4.597-14.144-23.337-31.47-39.956-51.978-53.038 1.414 0.707 4.243 2.829 4.244 2.475-38.188-25.105-82.387-28.641-118.807-20.862-2.475 1.061-3.536 2.122-6.365 3.536 5.304-1.768 8.486-2.122 13.437-3.183 1.061-1.061-4.597 0.354-2.122-0.707 0.354 0.354 4.95-0.707 6.011-0.353 0 0.354-1.414 0.707-1.768 1.06 11.669-2.475 23.691-2.829 33.945-2.121-6.011 0.354-16.972-0.707-20.508 1.061 3.536-0.354 8.486-0.707 11.668-0.354-4.243 0-12.022 0.354-15.558 0.707-0.354-0.354 5.657-1.061 1.768-1.06-1.768 0.354-4.597 0.354-5.657 1.414-30.409 2.829-60.111 18.74-80.973 37.481-4.243 3.536-9.193 7.425-12.375 11.314-7.779 8.84-12.729 17.68-18.387 25.459 3.536-7.425 11.315-18.74 20.508-28.287 9.193-9.547 19.094-17.68 24.398-21.923 0 1.414 8.486-5.304 11.669-7.425-2.122 1.768 1.414-0.707 2.121-0.354 11.315-6.718 20.508-9.193 30.763-13.083-2.475 0.707-4.597 1.414-4.951 1.061 2.475-0.707 3.889-1.414 3.536-1.768-9.901 2.829-25.459 9.547-37.834 16.972 22.276-15.204 50.564-24.398 78.497-24.751 27.934-0.707 55.16 6.365 76.729 17.68 14.497 6.365 28.287 18.033 39.249 29.348 3.182 2.829 0.707-0.707 5.304 4.243-1.414-0.707-2.475-1.414-0.707 0.707 2.829 3.182-0.707-2.475 3.889 3.182-0.354 0-1.768-1.768-1.768-1.061 12.376 10.961 21.923 30.762 27.58 43.846-1.414-5.304-4.95-12.729-7.779-18.033 8.486 15.558 11.315 24.751 14.851 38.541 1.414 1.061-0.707-4.95 0.707-2.121 0.354 2.122 0.707 8.84 2.122 9.9-1.061-6.718-2.829-14.851-4.243-16.265 1.061 0.707-1.768-8.133-3.536-10.254-0.707-5.657-5.657-15.558-9.901-22.984-15.204-29.702-42.431-54.099-72.839-67.536 0-0.707-1.768-1.414-2.476-2.121-30.055-12.729-66.122-16.265-100.773-8.133-35.006 8.486-67.889 28.641-91.227 57.636 1.061-3.536 9.901-10.254 10.255-13.083-10.254 10.961-21.215 25.459-28.641 41.016-7.779 15.558-12.022 31.47-13.79 43.138" fill="#274ea2" fill-rule="nonzero" stroke="none" stroke-width="1" stroke-linecap="butt" stroke-linejoin="miter" stroke-miterlimit="10" stroke-dasharray="" stroke-dashoffset="0" font-family="none" font-weight="none" font-size="none" text-anchor="none" style="mix-blend-mode: normal" data-fill-palette-color="tertiary"></path></g><g transform="matrix(1,0,0,1,48.000000000000014,151.3638521532723)"><svg viewBox="0 0 223.99999999999997 57.272295693455405" height="57.272295693455405" width="223.99999999999997"><g><svg viewBox="0 0 223.99999999999997 57.272295693455405" height="57.272295693455405" width="223.99999999999997"><g><svg viewBox="0 0 223.99999999999997 57.272295693455405" height="57.272295693455405" width="223.99999999999997"><g><svg viewBox="0 0 223.99999999999997 57.272295693455405" height="57.272295693455405" width="223.99999999999997"><g id="textblocktransform"><svg viewBox="0 0 223.99999999999997 57.272295693455405" height="57.272295693455405" width="223.99999999999997" id="textblock"><g><svg viewBox="0 0 223.99999999999997 57.272295693455405" height="57.272295693455405" width="223.99999999999997"><g transform="matrix(1,0,0,1,0,0)"><svg width="223.99999999999997" viewBox="2.9 -37.1 147.44 37.7" height="57.272295693455405" data-palette-color="#274ea2"><path d="M2.9 0.5L2.9 0.5 3.2-1.8Q5.45-2.1 6.28-2.98 7.1-3.85 7.1-6L7.1-6 7.15-27Q7.15-28.6 6.8-29.15 6.45-29.7 5.3-29.7L5.3-29.7Q5-29.7 4.5-29.68 4-29.65 3.6-29.6L3.6-29.6 3.5-29.8 3.85-32Q4.7-32 5.9-31.95 7.1-31.9 8.4-31.88 9.7-31.85 10.8-31.85L10.8-31.85Q14.8-31.85 17.53-31.9 20.25-31.95 22.2-32.1 24.15-32.25 25.8-32.45L25.8-32.45 25.95-32.15Q25.7-30.95 25.45-29.48 25.2-28 25.05-26.55 24.9-25.1 24.8-23.85L24.8-23.85 22.4-23.65Q22.45-24.1 22.48-24.78 22.5-25.45 22.5-25.8L22.5-25.8Q22.5-27 22.28-27.73 22.05-28.45 21.33-28.8 20.6-29.15 19.05-29.25 17.5-29.35 14.85-29.35L14.85-29.35Q13.25-29.35 12.5-29.25 11.75-29.15 11.58-28.75 11.4-28.35 11.35-27.4L11.35-27.4 10.85-15.75 10.65-5.25Q10.65-3.9 10.9-3.28 11.15-2.65 11.98-2.45 12.8-2.25 14.6-2.25L14.6-2.25Q17.55-2.25 19.35-2.45 21.15-2.65 22.1-3.25 23.05-3.85 23.5-5.08 23.95-6.3 24.25-8.35L24.25-8.35 26.45-8.6 26.6-8.35Q26.25-6.8 25.88-4.4 25.5-2 25.25 0.05L25.25 0.05 25 0.35Q22 0.25 19.03 0.18 16.05 0.1 13.65 0.05 11.25 0 9.85 0L9.85 0Q8.3 0 6.33 0.13 4.35 0.25 2.9 0.5ZM10.15-14.7L10.15-14.7 10.6-17.7Q10.95-17.7 11.95-17.7 12.95-17.7 14.1-17.68 15.25-17.65 16.1-17.65L16.1-17.65Q16.95-17.65 18.73-17.82 20.5-18 22.2-18.2L22.2-18.2 22.4-17.95 21.7-15Q20.3-15.05 18.23-15.1 16.15-15.15 14.7-15.15L14.7-15.15Q13.75-15.15 12.48-15.03 11.2-14.9 10.15-14.7ZM40.55 0.6L40.55 0.6Q37.4 0.6 35.05-0.78 32.7-2.15 31.4-4.63 30.1-7.1 30.1-10.45L30.1-10.45Q30.1-14.05 31.62-16.93 33.15-19.8 35.77-21.5 38.4-23.2 41.65-23.2L41.65-23.2Q43.25-23.2 44.57-22.98 45.9-22.75 46.7-22.5 47.5-22.25 47.5-22.25L47.5-22.25 47.65-21.9Q47.65-21.9 47.42-21 47.2-20.1 46.95-18.53 46.7-16.95 46.6-15L46.6-15 44.55-14.85 44.55-16.4Q44.55-18.25 43.42-19.38 42.3-20.5 40.45-20.5L40.45-20.5Q37.4-20.5 35.75-18.32 34.1-16.15 34.1-12.15L34.1-12.15Q34.1-7.8 35.92-5.28 37.75-2.75 40.9-2.75L40.9-2.75Q42.3-2.75 43.6-3.18 44.9-3.6 45.72-4 46.55-4.4 46.55-4.4L46.55-4.4 46.85-4.3 47.4-2.75Q47.4-2.75 46.7-2.25 46-1.75 44.9-1.07 43.8-0.4 42.62 0.1 41.45 0.6 40.55 0.6ZM50.95 0.1L51.25-1.95Q52.7-2.1 53.27-2.7 53.85-3.3 53.85-4.7L53.85-4.7 53.85-31.3Q53.85-32.65 53.42-33.27 53-33.9 52-33.9L52-33.9 50.95-33.9 50.75-34.05 50.95-35.65Q52.1-35.8 53.47-36.05 54.85-36.3 56.15-36.58 57.45-36.85 58.35-37.1L58.35-37.1 58.65-36.45Q58.45-36.1 58.2-33.8 57.95-31.5 57.77-27.75 57.6-24 57.45-19.3L57.45-19.3Q57.8-19.55 58.72-20.18 59.65-20.8 60.82-21.5 62-22.2 63.12-22.7 64.25-23.2 64.95-23.2L64.95-23.2Q68.2-23.2 70-21.53 71.8-19.85 71.8-16.75L71.8-16.75Q71.8-16.1 71.67-14.6 71.55-13.1 71.4-11.25 71.25-9.4 71.12-7.7 71-6 71-4.9L71-4.9Q71-3.45 71.4-2.78 71.8-2.1 72.75-2.1L72.75-2.1Q73.05-2.1 73.57-2.13 74.09-2.15 74.5-2.2L74.5-2.2 74.59-2 74.2 0.15Q73.4 0.1 72.07 0.05 70.75 0 69.75 0L69.75 0Q69.15 0 68.3 0.08 67.45 0.15 66.5 0.28 65.55 0.4 64.59 0.6L64.59 0.6 64.8-1.45Q66.3-1.85 66.95-2.63 67.59-3.4 67.59-4.7L67.59-4.7 67.9-14.6Q67.9-17.1 66.82-18.45 65.75-19.8 63.75-19.8L63.75-19.8Q62.5-19.8 60.67-19 58.85-18.2 57.4-17.05L57.4-17.05Q57.35-15.2 57.32-13.2 57.3-11.2 57.27-9.13 57.25-7.05 57.25-4.9L57.25-4.9Q57.25-3.35 57.67-2.73 58.1-2.1 59.05-2.1L59.05-2.1Q59.35-2.1 59.87-2.13 60.4-2.15 60.8-2.2L60.8-2.2 60.9-2 60.45 0.15Q59.6 0.1 58.25 0.05 56.9 0 55.9 0L55.9 0Q54.85 0 53.42 0.03 52 0.05 50.95 0.1L50.95 0.1ZM87.69 0.6L87.69 0.6Q84.84 0.6 82.64-0.8 80.44-2.2 79.22-4.73 77.99-7.25 77.99-10.5L77.99-10.5Q77.99-14.1 79.52-16.98 81.04-19.85 83.69-21.53 86.34-23.2 89.59-23.2L89.59-23.2Q92.44-23.2 94.64-21.8 96.84-20.4 98.07-17.9 99.29-15.4 99.29-12.1L99.29-12.1Q99.29-8.55 97.77-5.65 96.24-2.75 93.62-1.07 90.99 0.6 87.69 0.6ZM89.09-1.85L89.09-1.85Q91.89-1.85 93.54-4.13 95.19-6.4 95.19-10.3L95.19-10.3Q95.19-13.3 94.29-15.6 93.39-17.9 91.79-19.2 90.19-20.5 88.09-20.5L88.09-20.5Q85.29-20.5 83.64-18.2 81.99-15.9 81.99-11.95L81.99-11.95Q81.99-8.95 82.89-6.68 83.79-4.4 85.39-3.13 86.99-1.85 89.09-1.85ZM113.39 0.6L113.39 0.6Q110.24 0.6 107.89-0.8 105.54-2.2 104.22-4.67 102.89-7.15 102.89-10.45L102.89-10.45Q102.89-13 103.77-15.3 104.64-17.6 106.19-19.38 107.74-21.15 109.72-22.18 111.69-23.2 113.94-23.2L113.94-23.2Q121.39-23.2 121.39-15.95L121.39-15.95Q121.39-15.3 121.29-14.6 121.19-13.9 121.09-13.5L121.09-13.5 120.44-12.9 106.64-12.9Q106.59-8.45 108.27-5.88 109.94-3.3 112.99-2.88 116.04-2.45 120.19-4.35L120.19-4.35 120.49-4.25 121.04-2.8Q120.04-2.1 118.67-1.3 117.29-0.5 115.89 0.05 114.49 0.6 113.39 0.6ZM106.84-14.75L106.84-14.75 115.89-15.2Q116.64-15.3 116.89-15.55 117.14-15.8 117.14-16.55L117.14-16.55Q117.14-18.55 116.07-19.6 114.99-20.65 112.99-20.65L112.99-20.65Q110.69-20.65 108.99-19.07 107.29-17.5 106.84-14.75ZM145.99 0.6L145.99 0.6Q142.09 0.6 141.54-2.95L141.54-2.95 141.19-3.1Q138.59-1.35 137.04-0.45 135.49 0.45 134.94 0.45L134.94 0.45Q132.09 0.45 129.91-0.88 127.74-2.2 126.51-4.58 125.29-6.95 125.29-10.1L125.29-10.1Q125.29-13.7 126.96-16.68 128.64-19.65 131.49-21.43 134.34-23.2 137.74-23.2L137.74-23.2Q138.44-23.2 139.29-23.15 140.14-23.1 141.19-23L141.19-23 141.19-31.3Q141.19-32.7 140.74-33.35 140.29-34 139.34-34L139.34-34Q138.94-34 138.51-33.9 138.09-33.8 138.09-33.8L138.09-33.8 138.29-35.65Q139.59-35.8 140.89-36.05 142.19-36.3 143.29-36.55 144.39-36.8 145.04-36.95 145.69-37.1 145.69-37.1L145.69-37.1 145.99-36.45Q145.79-36.1 145.59-34.2 145.39-32.3 145.21-29.2 145.04-26.1 144.89-22.23 144.74-18.35 144.66-14 144.59-9.65 144.59-5.25L144.59-5.25Q144.59-4.15 145.14-3.55 145.69-2.95 146.64-2.95L146.64-2.95Q147.44-2.95 148.11-3.28 148.79-3.6 149.21-3.9 149.64-4.2 149.64-4.2L149.64-4.2 150.34-3.4Q150.34-3.4 149.99-2.9 149.64-2.4 149.04-1.68 148.44-0.95 147.66-0.3 146.89 0.35 145.99 0.6ZM135.74-2.8L135.74-2.8Q136.64-2.8 137.59-3.2 138.54-3.6 139.36-4.13 140.19-4.65 140.69-5.05 141.19-5.45 141.19-5.45L141.19-5.45 141.19-19.15Q141.19-19.15 139.89-19.73 138.59-20.3 136.34-20.3L136.34-20.3Q132.99-20.3 131.06-18.03 129.14-15.75 129.14-11.8L129.14-11.8Q129.14-9.3 130.01-7.25 130.89-5.2 132.39-4 133.89-2.8 135.74-2.8Z" opacity="1" transform="matrix(1,0,0,1,0,0)" fill="#274ea2" class="wordmark-text-0" data-fill-palette-color="primary" id="text-0"></path></svg></g></svg></g></svg></g></svg></g><g></g></svg></g></svg></g></svg></g></svg></g><defs></defs></svg><rect width="320" height="360" fill="none" stroke="none" visibility="hidden"></rect></g></svg></g></svg>